<svg width="450" height="126" viewBox="0 0 450 126" fill="none" xmlns="http://www.w3.org/2000/svg">
<path d="M200.249 190.387L207.659 200.783C214.442 210.294 223.808 217.662 234.653 222.01L246.507 226.766C291.324 244.745 298.551 305.159 259.235 333.195L248.838 340.606C239.328 347.388 231.96 356.754 227.611 367.6L222.856 379.453C204.876 424.27 144.463 431.497 116.426 392.181L109.016 381.785C102.233 372.274 92.8669 364.906 82.0214 360.558L70.1682 355.802C25.3511 337.823 18.1242 277.409 57.4403 249.373L67.8368 241.962C77.3473 235.18 84.7151 225.813 89.0636 214.968L93.8191 203.115C111.799 158.298 172.212 151.071 200.249 190.387Z" stroke="#51B9FF" stroke-miterlimit="10"/>
<path d="M209.757 188.417L216.783 199.878C223.208 210.364 232.502 218.786 243.569 224.148L255.667 230.009C301.41 252.173 304.565 316.152 261.221 342.707L249.76 349.733C239.274 356.158 230.852 365.452 225.49 376.519L219.629 388.617C197.465 434.361 133.487 437.515 106.931 394.171L99.9055 382.71C93.4802 372.224 84.1859 363.802 73.1191 358.44L61.0211 352.579C15.2777 330.415 12.1231 266.437 55.4673 239.882L66.9281 232.856C77.4141 226.43 85.836 217.136 91.1983 206.069L97.059 193.971C119.223 148.228 183.201 145.073 209.757 188.417Z" stroke="#51B9FF" stroke-miterlimit="10"/>
<path d="M219.887 187.039L226.419 199.592C232.396 211.077 241.538 220.605 252.769 227.046L265.043 234.092C311.452 260.73 310.063 328.137 262.599 352.837L250.046 359.369C238.561 365.346 229.033 374.488 222.592 385.719L215.546 397.993C188.908 444.402 121.501 443.013 96.8006 395.549L90.269 382.996C84.2919 371.511 75.1498 361.983 63.9189 355.542L51.6451 348.496C5.23613 321.858 6.62483 254.451 54.0892 229.751L66.6424 223.219C78.1272 217.242 87.655 208.1 94.0964 196.869L101.142 184.595C127.78 138.186 195.187 139.575 219.887 187.039Z" stroke="#51B9FF" stroke-miterlimit="10"/>
<path d="M230.623 186.335L236.563 199.994C241.993 212.491 250.897 223.166 262.216 230.757L274.582 239.056C321.358 270.432 314.951 341.112 263.294 363.572L249.635 369.511C237.138 374.942 226.463 383.845 218.872 395.165L210.573 407.531C179.198 454.307 108.518 447.899 86.0578 396.243L80.1183 382.584C74.6873 370.087 65.784 359.411 54.4645 351.821L42.0987 343.522C-4.67759 312.146 1.73007 241.466 53.3865 219.006L67.0456 213.067C79.5427 207.636 90.2179 198.733 97.8085 187.413L106.108 175.047C137.483 128.271 208.163 134.679 230.623 186.335Z" stroke="#51B9FF" stroke-miterlimit="10"/>
<path d="M241.946 186.387L247.179 201.162C251.967 214.685 260.528 226.546 271.854 235.345L284.237 244.968C331.047 281.345 319.137 355.1 263.244 374.887L248.469 380.12C234.946 384.907 223.085 393.468 214.286 404.795L204.663 417.177C168.286 463.988 94.531 452.078 74.7445 396.184L69.5114 381.409C64.7243 367.887 56.1629 356.026 44.8366 347.226L32.4543 337.604C-14.3562 301.226 -2.4463 227.471 53.447 207.685L68.2218 202.452C81.7446 197.665 93.6055 189.103 102.405 177.777L112.028 165.395C148.405 118.584 222.16 130.494 241.946 186.387Z" stroke="#51B9FF" stroke-miterlimit="10"/>
<path d="M253.831 187.277L258.243 203.177C262.274 217.727 270.399 230.814 281.648 240.891L293.938 251.899C340.425 293.538 322.501 370.102 262.361 386.782L246.461 391.194C231.911 395.225 218.824 403.349 208.747 414.599L197.738 426.889C156.1 473.376 79.5357 455.452 62.8561 395.312L58.4436 379.411C54.4128 364.861 46.2882 351.775 35.039 341.698L22.7486 330.689C-23.7384 289.051 -5.8142 212.486 54.3261 195.807L70.2264 191.394C84.7765 187.363 97.863 179.239 107.94 167.99L118.949 155.699C160.587 109.212 237.151 127.136 253.831 187.277Z" stroke="#51B9FF" stroke-miterlimit="10"/>
<path d="M266.245 189.074L269.707 206.098C272.879 221.67 280.441 236.007 291.515 247.418L303.611 259.885C349.369 307.025 324.924 386.108 260.554 399.202L243.53 402.664C227.958 405.837 213.621 413.398 202.21 424.472L189.742 436.569C142.603 482.326 63.5197 457.881 50.4261 393.511L46.9633 376.487C43.7913 360.915 36.2295 346.578 25.1558 335.167L13.0592 322.699C-32.6986 275.56 -8.2535 196.477 56.1166 183.383L73.1406 179.92C88.7131 176.748 103.05 169.187 114.46 158.113L126.928 146.016C174.068 100.258 253.151 124.704 266.245 189.074Z" stroke="#51B9FF" stroke-miterlimit="10"/>
<path d="M279.156 191.883L281.544 210.013C283.73 226.597 290.619 242.212 301.404 255.001L313.192 268.981C357.778 321.838 326.301 403.088 257.745 412.113L239.615 414.5C223.031 416.686 207.416 423.576 194.627 434.361L180.647 446.149C127.79 490.734 46.5405 459.258 37.5154 390.701L35.1276 372.572C32.9416 355.987 26.0523 340.372 15.2671 327.583L3.47932 313.603C-41.1063 260.747 -9.62946 179.497 58.9268 170.472L77.0561 168.084C93.6409 165.898 109.256 159.009 122.045 148.224L136.025 136.436C188.881 91.8503 270.131 123.327 279.156 191.883Z" stroke="#51B9FF" stroke-miterlimit="10"/>
<path d="M292.499 195.77L293.678 214.984C294.752 232.563 300.847 249.464 311.238 263.678L322.594 279.221C365.533 337.993 326.518 420.999 253.868 425.449L234.653 426.628C217.075 427.703 200.173 433.797 185.96 444.189L170.417 455.545C111.644 498.484 28.6385 459.469 24.1882 386.818L23.0091 367.604C21.9345 350.025 15.8401 333.124 5.4484 318.91L-5.90747 303.367C-48.8464 244.595 -9.83141 161.589 62.8192 157.139L82.0334 155.96C99.6121 154.885 116.513 148.791 130.727 138.399L146.27 127.043C205.042 84.1042 288.048 123.119 292.499 195.77Z" stroke="#51B9FF" stroke-miterlimit="10"/>
<path d="M306.235 200.836L306.059 221.096C305.9 239.633 311.052 257.824 320.917 273.52L331.701 290.673C372.472 355.542 325.414 439.842 248.795 439.175L228.536 438.999C209.998 438.84 191.808 443.992 176.112 453.857L158.958 464.642C94.0892 505.412 9.78981 458.355 10.4565 381.735L10.6327 361.476C10.7914 342.939 5.63924 324.748 -4.22584 309.052L-15.0101 291.899C-55.7805 227.03 -8.72309 142.73 67.8962 143.397L88.1553 143.573C106.693 143.732 124.883 138.579 140.579 128.714L157.733 117.93C222.602 77.1598 306.901 124.217 306.235 200.836Z" stroke="#51B9FF" stroke-miterlimit="10"/>
<path d="M320.276 207.168L318.606 228.433C317.077 247.883 321.157 267.369 330.361 284.57L340.427 303.372C378.479 374.487 322.873 459.548 242.47 453.226L221.205 451.556C201.755 450.028 182.269 454.107 165.068 463.311L146.266 473.378C75.1516 511.43 -9.90955 455.824 -3.58774 375.421L-1.9179 354.155C-0.389369 334.705 -4.4686 315.219 -13.6727 298.018L-23.7394 279.217C-61.7914 208.102 -6.18527 123.041 74.2177 129.362L95.4831 131.032C114.933 132.561 134.419 128.482 151.62 119.278L170.422 109.211C241.536 71.1588 326.598 126.765 320.276 207.168Z" stroke="#51B9FF" stroke-miterlimit="10"/>
<path d="M334.561 214.846L331.239 237.049C328.204 257.364 331.06 278.122 339.459 296.857L348.646 317.341C383.379 394.805 318.745 480.05 234.785 467.501L212.582 464.18C192.267 461.145 171.509 464.001 152.774 472.4L132.29 481.586C54.826 516.32 -30.419 451.686 -17.87 367.726L-14.5488 345.523C-11.5138 325.207 -14.37 304.45 -22.7688 285.714L-31.9552 265.231C-66.6887 187.767 -2.05456 102.521 81.9052 115.071L104.108 118.392C124.424 121.427 145.182 118.571 163.917 110.172L184.401 100.985C261.865 66.2518 347.11 130.886 334.561 214.846Z" stroke="#51B9FF" stroke-miterlimit="10"/>
<path d="M348.995 223.954L343.881 247.03C339.2 268.137 340.675 290.141 348.124 310.44L356.263 332.622C387.057 416.516 312.925 501.283 225.676 481.944L202.6 476.83C181.493 472.149 159.489 473.624 139.19 481.073L117.008 489.212C33.1137 520.005 -51.6533 445.873 -32.3138 358.625L-27.1999 335.549C-22.519 314.441 -23.9937 292.437 -31.4429 272.138L-39.5818 249.957C-70.3753 166.062 3.75651 81.2952 91.005 100.635L114.081 105.749C135.189 110.429 157.193 108.955 177.492 101.506L199.673 93.3667C283.568 62.5732 368.335 136.705 348.995 223.954Z" stroke="#51B9FF" stroke-miterlimit="10"/>
<path d="M363.481 234.581L356.414 258.435C349.949 280.254 349.886 303.47 356.214 325.33L363.138 349.225C389.313 439.577 305.244 523.141 215.046 496.438L191.193 489.37C169.374 482.906 146.158 482.842 124.298 489.17L100.403 496.094C10.0511 522.269 -73.5135 438.201 -46.8097 348.003L-39.7425 324.149C-33.278 302.33 -33.2146 279.114 -39.5423 257.254L-46.4663 233.359C-72.6314 143.001 11.4289 59.4348 101.633 86.1486L125.487 93.2158C147.306 99.6802 170.522 99.7436 192.382 93.416L216.277 86.4919C306.628 60.3168 390.193 144.385 363.489 234.583L363.481 234.581Z" stroke="#51B9FF" stroke-miterlimit="10"/>
<path d="M377.918 246.795L368.747 271.325C360.363 293.765 358.584 318.138 363.626 341.558L369.139 367.159C389.989 463.962 295.576 545.537 202.826 510.865L178.296 501.694C155.856 493.31 131.483 491.531 108.063 496.573L82.4626 502.085C-14.3406 522.936 -95.916 428.522 -61.2436 335.773L-52.0725 311.243C-43.6885 288.803 -41.9092 264.43 -46.9516 241.01L-52.4641 215.409C-73.3099 118.624 21.0971 37.039 113.847 71.7114L138.377 80.8825C160.817 89.2665 185.19 91.0458 208.61 86.0034L234.21 80.4909C331.013 59.6404 412.589 154.054 377.916 246.803L377.918 246.795Z" stroke="#51B9FF" stroke-miterlimit="10"/>
<path d="M392.175 260.686L380.746 285.765C370.294 308.716 366.633 334.176 370.213 359.135L374.121 386.417C388.906 489.589 283.786 568.33 188.928 525.112L163.85 513.683C140.899 503.231 115.439 499.57 90.4795 503.15L63.1981 507.058C-39.9742 521.842 -118.715 416.723 -75.4968 321.865L-64.0682 296.787C-53.6158 273.835 -49.9546 248.376 -53.5351 223.416L-57.443 196.135C-72.2293 92.9709 32.8885 14.2384 127.738 57.4548L152.816 68.8834C175.768 79.3359 201.227 82.997 226.187 79.4165L253.468 75.5086C356.64 60.7241 435.381 165.844 392.163 260.701L392.175 260.686Z" stroke="#51B9FF" stroke-miterlimit="10"/>
<path d="M406.133 276.324L392.293 301.823C379.629 325.152 373.922 351.619 375.847 378.094L377.949 407.03C385.898 516.458 269.733 591.419 173.307 539.073L147.808 525.233C124.48 512.569 98.0122 506.862 71.5378 508.787L42.6014 510.889C-66.826 518.838 -141.787 402.673 -89.4412 306.247L-75.6015 280.748C-62.9372 257.42 -57.23 230.952 -59.1554 204.478L-61.2572 175.541C-69.2151 66.1121 46.9486 -8.8411 143.376 43.4969L168.875 57.3366C192.204 70.001 218.671 75.7081 245.146 73.7828L274.082 71.6809C383.509 63.7313 458.471 179.897 406.125 276.323L406.133 276.324Z" stroke="#51B9FF" stroke-miterlimit="10"/>
</svg>
