<svg width="370" height="363" viewBox="0 0 370 363" fill="none" xmlns="http://www.w3.org/2000/svg">
<path d="M483.282 420.55L483.331 425.86C483.387 430.718 484.823 435.455 487.486 439.519L490.401 443.958C501.403 460.75 489.497 483.075 469.413 483.277L464.103 483.326C459.245 483.382 454.508 484.818 450.444 487.481L446.005 490.396C429.213 501.398 406.889 489.492 406.686 469.408L406.638 464.098C406.581 459.24 405.145 454.503 402.483 450.439L399.568 446C388.565 429.208 400.472 406.884 420.555 406.681L425.865 406.633C430.723 406.576 435.46 405.14 439.524 402.477L443.963 399.562C460.755 388.56 483.08 400.466 483.282 420.55Z" stroke="#51B9FF" stroke-miterlimit="10"/>
<path d="M486.99 422.132L486.663 427.71C486.359 432.821 487.526 437.902 490.02 442.364L492.743 447.24C503.069 465.686 488.918 488.246 467.824 486.992L462.246 486.665C457.135 486.361 452.054 487.528 447.592 490.022L442.716 492.745C424.27 503.072 401.71 488.92 402.964 467.826L403.291 462.248C403.595 457.138 402.428 452.056 399.934 447.594L397.211 442.718C386.885 424.272 401.036 401.712 422.13 402.966L427.708 403.294C432.819 403.597 437.9 402.43 442.362 399.936L447.238 397.213C465.684 386.887 488.244 401.039 486.99 422.132Z" stroke="#51B9FF" stroke-miterlimit="10"/>
<path d="M490.773 424.067L490.017 429.905C489.322 435.237 490.175 440.663 492.469 445.539L494.977 450.859C504.466 470.982 487.954 493.632 465.897 490.768L460.059 490.011C454.726 489.316 449.3 490.169 444.425 492.463L439.105 494.971C418.981 504.461 396.332 487.949 399.196 465.891L399.953 460.053C400.647 454.721 399.794 449.295 397.5 444.419L394.992 439.099C385.503 418.976 402.015 396.326 424.072 399.191L429.91 399.947C435.243 400.642 440.669 399.789 445.544 397.495L450.864 394.987C470.988 385.497 493.637 402.009 490.773 424.067Z" stroke="#51B9FF" stroke-miterlimit="10"/>
<path d="M494.602 426.384L493.378 432.46C492.261 438.014 492.754 443.769 494.81 449.05L497.049 454.822C505.533 476.654 486.539 499.224 463.579 494.597L457.504 493.372C451.949 492.256 446.194 492.748 440.913 494.804L435.141 497.044C413.31 505.528 390.739 486.533 395.367 463.573L396.591 457.498C397.708 451.944 397.215 446.189 395.159 440.908L392.92 435.135C384.435 413.304 403.43 390.734 426.39 395.361L432.465 396.586C438.019 397.702 443.774 397.21 449.056 395.154L454.828 392.914C476.659 384.43 499.23 403.424 494.602 426.384Z" stroke="#51B9FF" stroke-miterlimit="10"/>
<path d="M498.446 429.101L496.716 435.39C495.132 441.135 495.233 447.219 496.998 452.914L498.93 459.146C506.24 482.685 484.633 505 460.863 498.456L454.573 496.725C448.828 495.141 442.744 495.243 437.049 497.007L430.818 498.94C407.279 506.25 384.964 484.643 391.508 460.872L393.238 454.583C394.822 448.838 394.721 442.754 392.956 437.059L391.024 430.827C383.713 407.288 405.321 384.973 429.091 391.517L435.38 393.248C441.126 394.832 447.21 394.73 452.905 392.966L459.136 391.033C482.675 383.723 504.99 405.33 498.446 429.101Z" stroke="#51B9FF" stroke-miterlimit="10"/>
<path d="M502.29 432.231L500.008 438.704C497.925 444.625 497.574 451.022 499.017 457.131L500.589 463.814C506.533 489.068 482.206 510.913 457.733 502.299L451.26 500.017C445.339 497.935 438.941 497.584 432.833 499.026L426.15 500.598C400.896 506.543 379.051 482.216 387.664 457.743L389.947 451.27C392.029 445.349 392.38 438.951 390.938 432.843L389.366 426.159C383.421 400.906 407.748 379.06 432.221 387.674L438.694 389.956C444.615 392.038 451.013 392.389 457.121 390.947L463.805 389.375C489.058 383.431 510.903 407.758 502.29 432.231Z" stroke="#51B9FF" stroke-miterlimit="10"/>
<path d="M506.095 435.798L503.222 442.43C500.596 448.497 499.769 455.185 500.828 461.707L501.986 468.834C506.373 495.795 479.22 516.94 454.158 506.096L447.526 503.224C441.459 500.598 434.771 499.771 428.249 500.83L421.122 501.988C394.161 506.375 373.016 479.221 383.86 454.16L386.732 447.527C389.358 441.461 390.185 434.773 389.126 428.251L387.968 421.124C383.581 394.163 410.735 373.018 435.796 383.861L442.429 386.734C448.495 389.36 455.183 390.187 461.705 389.128L468.833 387.97C495.794 383.583 516.939 410.736 506.095 435.798Z" stroke="#51B9FF" stroke-miterlimit="10"/>
<path d="M509.838 439.824L506.337 446.579C503.136 452.76 501.773 459.724 502.402 466.643L503.1 474.215C505.723 502.844 475.666 523.059 450.14 509.832L443.385 506.331C437.204 503.13 430.24 501.767 423.321 502.396L415.749 503.094C387.12 505.717 366.905 475.66 380.132 450.134L383.633 443.379C386.834 437.199 388.197 430.235 387.568 423.315L386.87 415.744C384.247 387.114 414.304 366.899 439.83 380.126L446.585 383.627C452.765 386.828 459.729 388.191 466.649 387.562L474.22 386.865C502.85 384.241 523.065 414.298 509.838 439.824Z" stroke="#51B9FF" stroke-miterlimit="10"/>
<path d="M513.458 444.326L509.282 451.157C505.46 457.405 503.522 464.622 503.684 471.932L503.86 479.932C504.52 510.184 471.468 529.208 445.638 513.437L438.807 509.262C432.558 505.44 425.342 503.502 418.032 503.663L410.032 503.839C379.78 504.499 360.755 471.448 376.527 445.617L380.702 438.786C384.524 432.538 386.462 425.321 386.301 418.011L386.125 410.011C385.465 379.759 418.516 360.735 444.346 376.506L451.177 380.681C457.426 384.503 464.642 386.441 471.953 386.28L479.953 386.104C510.205 385.444 529.229 418.495 513.458 444.326Z" stroke="#51B9FF" stroke-miterlimit="10"/>
<path d="M516.932 449.325L512.051 456.186C507.586 462.465 505.019 469.895 504.652 477.595L504.245 486.008C502.72 517.829 466.612 535.372 440.647 516.918L433.786 512.038C427.507 507.573 420.077 505.006 412.376 504.638L403.963 504.232C372.142 502.707 354.6 466.599 373.053 440.633L377.933 433.773C382.399 427.494 384.966 420.063 385.333 412.363L385.74 403.95C387.265 372.129 423.373 354.586 449.338 373.04L456.199 377.92C462.478 382.386 469.908 384.952 477.609 385.32L486.022 385.727C517.843 387.252 535.385 423.359 516.932 449.325Z" stroke="#51B9FF" stroke-miterlimit="10"/>
<path d="M520.213 454.822L514.59 461.675C509.442 467.945 506.201 475.559 505.243 483.619L504.2 492.422C500.26 525.719 461.059 541.497 435.149 520.215L428.297 514.592C422.026 509.444 414.413 506.203 406.353 505.245L397.55 504.202C364.252 500.262 348.475 461.061 369.756 435.151L375.379 428.299C380.527 422.028 383.768 414.415 384.726 406.355L385.769 397.552C389.71 364.254 428.911 348.477 454.82 369.758L461.673 375.382C467.943 380.529 475.557 383.77 483.617 384.728L492.42 385.771C525.717 389.712 541.495 428.913 520.213 454.822Z" stroke="#51B9FF" stroke-miterlimit="10"/>
<path d="M523.257 460.833L516.845 467.615C510.977 473.824 507.016 481.574 505.421 489.963L503.673 499.134C497.088 533.815 454.769 547.498 429.124 523.244L422.341 516.831C416.132 510.963 408.382 507.002 399.993 505.408L390.823 503.659C356.141 497.074 342.459 454.756 366.712 429.11L373.125 422.328C378.993 416.119 382.954 408.368 384.549 399.979L386.297 390.809C392.882 356.127 435.2 342.445 460.846 366.699L467.629 373.111C473.837 378.979 481.588 382.941 489.977 384.535L499.147 386.283C533.829 392.869 547.511 435.187 523.257 460.833Z" stroke="#51B9FF" stroke-miterlimit="10"/>
<path d="M526.009 467.379L518.777 474.031C512.158 480.116 507.431 487.973 505.139 496.66L502.639 506.167C493.179 542.095 447.737 553.368 422.585 526.019L415.933 518.787C409.848 512.168 401.991 507.44 393.304 505.149L383.797 502.649C347.869 493.189 336.596 447.747 363.945 422.595L371.177 415.943C377.796 409.858 382.524 402.001 384.816 393.314L387.315 383.807C396.775 347.879 442.217 336.606 467.369 363.955L474.021 371.187C480.106 377.806 487.963 382.533 496.651 384.825L506.157 387.325C542.085 396.785 553.358 442.227 526.009 467.379Z" stroke="#51B9FF" stroke-miterlimit="10"/>
<path d="M528.424 474.446L520.341 480.906C512.949 486.814 507.401 494.709 504.358 503.671L501.031 513.468C488.458 550.511 439.916 559 415.51 528.426L409.051 520.343C403.142 512.951 395.248 507.403 386.286 504.36L376.488 501.033C339.445 488.461 330.956 439.918 361.53 415.512L369.613 409.053C377.005 403.145 382.553 395.25 385.596 386.288L388.924 376.491C401.496 339.447 450.038 330.958 474.444 361.533L480.903 369.615C486.812 377.008 494.706 382.555 503.669 385.598L513.466 388.926C550.509 401.498 558.998 450.04 528.424 474.446Z" stroke="#51B9FF" stroke-miterlimit="10"/>
<path d="M530.439 482.05L521.484 488.232C513.287 493.887 506.881 501.781 503.033 510.964L498.824 520.998C482.903 558.966 431.306 564.317 407.93 530.434L401.747 521.478C396.093 513.281 388.199 506.875 379.015 503.027L368.982 498.819C331.014 482.897 325.662 431.3 359.546 407.924L368.502 401.742C376.698 396.087 383.104 388.193 386.952 379.01L391.161 368.976C407.082 331.008 458.679 325.657 482.055 359.54L488.238 368.496C493.892 376.693 501.786 383.099 510.97 386.946L521.004 391.155C558.971 407.077 564.323 458.674 530.439 482.05Z" stroke="#51B9FF" stroke-miterlimit="10"/>
<path d="M532.002 490.181L522.134 496.018C513.11 501.349 505.8 509.166 501.087 518.525L495.927 528.757C476.419 567.457 421.845 569.288 399.783 531.996L393.946 522.129C388.614 513.105 380.797 505.795 371.438 501.081L361.206 495.922C322.507 476.414 320.675 421.839 357.967 399.777L367.834 393.94C376.858 388.608 384.168 380.792 388.882 371.433L394.041 361.201C413.55 322.501 468.124 320.67 490.186 357.961L496.023 367.829C501.355 376.853 509.171 384.163 518.53 388.877L528.762 394.036C567.462 413.544 569.294 468.118 532.002 490.181Z" stroke="#51B9FF" stroke-miterlimit="10"/>
<path d="M533.035 498.825L522.249 504.232C512.383 509.18 504.138 516.842 498.497 526.331L492.326 536.7C469.001 575.901 411.557 573.83 391.131 533.038L385.724 522.252C380.776 512.385 373.114 504.14 363.625 498.499L353.256 492.328C314.055 469.004 316.126 411.56 356.918 391.133L367.704 385.726C377.571 380.778 385.816 373.116 391.457 363.628L397.628 353.259C420.952 314.057 478.396 316.128 498.823 356.921L504.23 367.707C509.178 377.573 516.84 385.818 526.328 391.459L536.697 397.63C575.899 420.955 573.828 478.399 533.035 498.825Z" stroke="#51B9FF" stroke-miterlimit="10"/>
<path d="M533.486 507.99L521.766 512.875C511.034 517.339 501.824 524.786 495.202 534.335L487.966 544.772C460.595 584.23 400.435 577.827 381.974 533.496L377.089 521.775C372.624 511.044 365.178 501.834 355.629 495.212L345.192 487.976C305.734 460.605 312.137 400.445 356.467 381.983L368.188 377.099C378.92 372.634 388.13 365.187 394.752 355.639L401.988 345.202C429.359 305.744 489.518 312.147 507.98 356.477L512.865 368.198C517.329 378.93 524.776 388.14 534.325 394.762L544.762 401.998C584.22 429.368 577.817 489.528 533.486 507.99Z" stroke="#51B9FF" stroke-miterlimit="10"/>
<path d="M533.293 517.645L520.631 521.908C509.041 525.805 498.812 532.952 491.156 542.492L482.794 552.92C451.163 592.343 388.448 581.202 372.319 533.303L368.056 520.641C364.159 509.051 357.013 498.822 347.473 491.166L337.044 482.803C297.621 451.172 308.762 388.458 356.661 372.329L369.323 368.066C380.913 364.169 391.142 357.022 398.798 347.482L407.161 337.054C438.792 297.631 501.506 308.772 517.635 356.671L521.898 369.333C525.795 380.923 532.942 391.152 542.482 398.808L552.91 407.171C592.333 438.802 581.192 501.516 533.293 517.645Z" stroke="#51B9FF" stroke-miterlimit="10"/>
<path d="M532.387 527.766L518.767 531.315C506.312 534.56 495.05 541.315 486.305 550.762L476.755 561.089C440.642 600.164 375.611 583.863 362.19 532.373L358.64 518.754C355.396 506.299 348.641 495.036 339.194 486.292L328.867 476.742C289.792 440.628 306.093 375.597 357.583 362.177L371.202 358.627C383.657 355.383 394.92 348.628 403.664 339.181L413.214 328.853C449.327 289.779 514.359 306.079 527.779 357.569L531.329 371.189C534.573 383.644 541.328 394.906 550.775 403.651L561.103 413.201C600.177 449.314 583.877 514.345 532.387 527.766Z" stroke="#51B9FF" stroke-miterlimit="10"/>
<path d="M530.683 538.331L516.122 541.06C502.809 543.553 490.474 549.816 480.611 559.093L469.828 569.243C429.041 607.623 361.947 585.728 351.641 530.685L348.912 516.124C346.419 502.812 340.155 490.477 330.878 480.614L320.728 469.83C282.348 429.043 304.244 361.949 359.286 351.643L373.848 348.914C387.16 346.421 399.495 340.158 409.358 330.88L420.141 320.73C460.928 282.35 528.023 304.246 538.329 359.288L541.058 373.85C543.55 387.162 549.814 399.497 559.091 409.36L569.241 420.144C607.621 460.93 585.725 528.025 530.683 538.331Z" stroke="#51B9FF" stroke-miterlimit="10"/>
<path d="M528.121 549.294L512.641 551.087C498.479 552.728 485.071 558.393 474.029 567.424L461.951 577.289C416.299 614.599 347.456 586.687 340.678 528.123L338.885 512.643C337.243 498.481 331.579 485.074 322.548 474.031L312.682 461.953C275.372 416.302 303.285 347.458 361.848 340.68L377.328 338.887C391.49 337.246 404.898 331.581 415.94 322.55L428.019 312.685C473.67 275.375 542.513 303.287 549.291 361.851L551.084 377.331C552.726 391.493 558.391 404.9 567.422 415.943L577.287 428.021C614.597 473.672 586.684 542.516 528.121 549.294Z" stroke="#51B9FF" stroke-miterlimit="10"/>
<path d="M524.631 560.615L508.24 561.358C493.244 562.04 478.757 567.007 466.496 575.677L453.093 585.15C402.416 620.969 332.177 586.61 329.356 524.618L328.614 508.227C327.931 493.231 322.965 478.744 314.295 466.483L304.822 453.08C269.003 402.403 303.361 332.164 365.354 329.343L381.745 328.6C396.741 327.918 411.228 322.951 423.489 314.282L436.892 304.809C487.569 268.99 557.808 303.348 560.629 365.34L561.371 381.731C562.054 396.728 567.02 411.215 575.69 423.475L585.163 436.879C620.982 487.555 586.624 557.795 524.631 560.615Z" stroke="#51B9FF" stroke-miterlimit="10"/>
<path d="M520.121 572.25L502.851 571.835C487.051 571.452 471.477 575.605 457.967 583.806L443.2 592.772C387.361 626.67 316.117 585.43 317.706 520.124L318.121 502.853C318.504 487.053 314.351 471.479 306.15 457.97L297.184 443.203C263.286 387.364 304.526 316.12 369.832 317.708L387.103 318.124C402.903 318.507 418.477 314.354 431.986 306.153L446.753 297.186C502.592 263.288 573.836 304.529 572.248 369.835L571.833 387.105C571.449 402.905 575.603 418.479 583.804 431.989L592.77 446.756C626.668 502.595 585.428 573.839 520.121 572.25Z" stroke="#51B9FF" stroke-miterlimit="10"/>
<path d="M514.539 584.145L496.434 582.434C479.869 580.87 463.208 584.087 448.419 591.712L432.251 600.041C371.12 631.535 299.346 583 305.811 514.542L307.522 496.437C309.086 479.872 305.869 463.211 298.244 448.422L289.915 432.254C258.42 371.122 306.956 299.349 375.414 305.814L393.519 307.525C410.084 309.089 426.745 305.871 441.534 298.246L457.702 289.918C518.834 258.423 590.607 306.958 584.142 375.417L582.431 393.522C580.867 410.086 584.084 426.748 591.709 441.536L600.038 457.705C631.533 518.836 582.997 590.61 514.539 584.145Z" stroke="#51B9FF" stroke-miterlimit="10"/>
<path d="M507.808 596.222L488.923 593.1C471.646 590.24 453.913 592.399 437.823 599.318L420.238 606.872C353.737 635.457 281.933 579.221 293.742 507.802L296.864 488.917C299.723 471.641 297.564 453.908 290.646 437.817L283.092 420.232C254.507 353.732 310.743 281.928 382.162 293.736L401.047 296.858C418.323 299.718 436.056 297.559 452.146 290.64L469.732 283.087C536.232 254.501 608.036 310.738 596.227 382.156L593.106 401.041C590.246 418.317 592.405 436.051 599.324 452.141L606.877 469.726C635.462 536.226 579.226 608.03 507.808 596.222Z" stroke="#51B9FF" stroke-miterlimit="10"/>
<path d="M499.85 608.405L480.254 603.743C462.32 599.473 443.546 600.435 426.146 606.517L407.121 613.165C335.199 638.297 263.916 573.977 281.566 499.852L286.229 480.256C290.499 462.322 289.537 443.548 283.454 426.148L276.806 407.123C251.675 335.201 315.994 263.919 390.12 281.569L409.716 286.231C427.649 290.501 446.424 289.539 463.823 283.457L482.848 276.809C554.77 251.677 626.053 315.997 608.403 390.122L603.74 409.718C599.47 427.652 600.433 446.426 606.515 463.826L613.163 482.851C638.295 554.772 573.975 626.055 499.85 608.405Z" stroke="#51B9FF" stroke-miterlimit="10"/>
<path d="M490.597 620.61L470.359 614.276C451.844 608.473 432.052 608.109 413.328 613.217L392.871 618.798C315.497 639.91 245.38 567.139 269.346 490.599L275.68 470.361C281.483 451.846 281.847 432.054 276.739 413.33L271.158 392.873C250.046 315.499 322.817 245.382 399.357 269.348L419.595 275.682C438.11 281.485 457.902 281.849 476.626 276.741L497.083 271.16C574.457 250.048 644.574 322.819 620.608 399.359L614.274 419.597C608.471 438.112 608.107 457.904 613.215 476.628L618.796 497.085C639.908 574.459 567.137 644.577 490.597 620.61Z" stroke="#51B9FF" stroke-miterlimit="10"/>
<path d="M479.995 632.752L459.207 624.61C440.189 617.166 419.44 615.322 399.399 619.31L377.503 623.664C294.701 640.15 226.416 558.585 257.204 479.982L265.346 459.194C272.79 440.175 274.634 419.427 270.646 399.385L266.292 377.489C249.806 294.687 331.371 226.402 409.974 257.19L430.762 265.333C449.781 272.776 470.529 274.62 490.57 270.632L512.467 266.278C595.268 249.793 663.554 331.358 632.766 409.96L624.623 430.749C617.18 449.767 615.336 470.516 619.324 490.557L623.678 512.453C640.163 595.255 558.598 663.54 479.995 632.752Z" stroke="#51B9FF" stroke-miterlimit="10"/>
<path d="M467.954 644.725L446.723 634.651C427.3 625.437 405.641 621.975 384.314 624.69L361.002 627.656C272.849 638.887 207.131 548.222 245.231 467.94L255.305 446.71C264.519 427.287 267.981 405.628 265.266 384.301L262.3 360.988C251.069 272.835 341.734 207.118 422.016 245.218L443.246 255.292C462.669 264.506 484.328 267.967 505.655 265.253L528.968 262.287C617.121 251.056 682.838 341.721 644.738 422.002L634.664 443.233C625.45 462.656 621.989 484.315 624.703 505.642L627.669 528.955C638.901 617.107 548.235 682.825 467.954 644.725Z" stroke="#51B9FF" stroke-miterlimit="10"/>
<path d="M454.448 656.412L432.89 644.277C413.17 633.17 390.678 627.953 368.088 629.249L343.39 630.658C250.002 635.984 187.65 535.958 233.544 454.451L245.679 432.892C256.786 413.172 262.003 390.68 260.707 368.09L259.298 343.392C253.972 250.004 353.998 187.652 435.505 233.546L457.063 245.681C476.784 256.788 499.276 262.005 521.866 260.709L546.564 259.3C639.952 253.974 702.304 354 656.41 435.508L644.275 457.066C633.168 476.786 627.951 499.278 629.247 521.868L630.655 546.566C635.982 639.954 535.956 702.306 454.448 656.412Z" stroke="#51B9FF" stroke-miterlimit="10"/>
<path d="M439.396 667.7L417.656 653.373C397.762 640.266 374.536 633.132 350.713 632.825L324.676 632.493C226.222 631.225 168.086 521.617 222.271 439.398L236.598 417.658C249.705 397.763 256.839 374.538 257.146 350.715L257.478 324.678C258.746 226.224 368.354 168.088 450.573 222.273L472.313 236.6C492.208 249.707 515.433 256.841 539.256 257.148L565.293 257.479C663.747 258.748 721.883 368.356 667.698 450.575L653.371 472.315C640.264 492.209 633.13 515.435 632.823 539.258L632.492 565.295C631.223 663.749 521.615 721.885 439.396 667.7Z" stroke="#51B9FF" stroke-miterlimit="10"/>
<path d="M422.766 678.434L400.982 661.793C381.059 646.571 357.184 637.376 332.198 635.306L304.884 633.049C201.586 624.489 148.594 505.124 211.522 422.768L228.163 400.984C243.385 381.061 252.58 357.186 254.651 332.201L256.907 304.886C265.467 201.588 384.832 148.596 467.189 211.524L488.972 228.165C508.895 243.387 532.77 252.583 557.756 254.653L585.07 256.909C688.368 265.469 741.36 384.834 678.432 467.191L661.791 488.974C646.569 508.897 637.374 532.772 635.303 557.758L633.047 585.073C624.487 688.37 505.122 741.363 422.766 678.434Z" stroke="#51B9FF" stroke-miterlimit="10"/>
<path d="M404.511 688.493L382.868 669.415C363.062 651.964 338.668 640.561 312.589 636.551L284.073 632.171C176.239 615.599 129.348 486.363 201.479 404.514L220.556 382.87C238.008 363.064 249.41 338.67 253.42 312.591L257.801 284.075C274.372 176.242 403.608 129.351 485.458 201.481L507.101 220.559C526.907 238.01 551.301 249.413 577.38 253.423L605.896 257.803C713.73 274.375 760.621 403.611 688.49 485.46L669.412 507.104C651.961 526.91 640.558 551.304 636.548 577.383L632.168 605.898C615.596 713.732 486.361 760.623 404.511 688.493Z" stroke="#51B9FF" stroke-miterlimit="10"/>
<path d="M384.61 697.714L363.275 676.093C343.763 656.312 318.988 642.549 291.884 636.423L262.267 629.728C150.243 604.416 110.496 465.265 192.249 384.605L213.87 363.27C233.651 343.758 247.414 318.983 253.54 291.879L260.235 262.262C285.546 150.238 424.698 110.49 505.358 192.244L526.693 213.865C546.205 233.646 570.98 247.409 598.084 253.535L627.701 260.23C739.725 285.541 779.473 424.693 697.719 505.353L676.098 526.687C656.317 546.2 642.554 570.975 636.428 598.079L629.733 627.695C604.422 739.72 465.27 779.467 384.61 697.714Z" stroke="#51B9FF" stroke-miterlimit="10"/>
<path d="M363.032 705.931L342.221 681.658C323.186 659.457 298.177 643.188 270.171 634.762L239.552 625.561C123.783 590.759 92.2667 441.723 184.025 363.019L208.298 342.209C230.499 323.174 246.768 298.164 255.194 270.158L264.395 239.54C299.197 123.77 448.233 92.2539 526.937 184.013L547.747 208.285C566.782 230.486 591.792 246.755 619.798 255.181L650.416 264.383C766.186 299.199 797.71 448.227 705.936 526.932L681.664 547.742C659.462 566.777 643.193 591.787 634.768 619.793L625.566 650.411C590.765 766.181 441.729 797.697 363.024 705.938L363.032 705.931Z" stroke="#51B9FF" stroke-miterlimit="10"/>
<path d="M339.777 712.988L319.705 685.973C301.339 661.267 276.278 642.339 247.485 631.438L216.012 619.523C96.9955 574.473 74.8449 415.662 176.984 339.764L203.998 319.692C228.705 301.326 247.633 276.265 258.534 247.472L270.449 215.999C315.498 96.9825 474.31 74.8318 550.207 176.971L570.28 203.985C588.646 228.692 613.707 247.62 642.499 258.521L673.973 270.436C792.966 315.477 815.132 474.289 712.993 550.186L685.979 570.259C661.272 588.625 642.344 613.686 631.443 642.478L619.528 673.952C574.479 792.968 415.667 815.119 339.77 712.98L339.777 712.988Z" stroke="#51B9FF" stroke-miterlimit="10"/>
<path d="M314.838 718.68L295.749 688.846C278.275 661.551 253.354 639.834 223.921 626.281L191.753 611.461C70.0958 555.421 58.4752 387.034 171.307 314.825L201.141 295.736C228.436 278.262 250.153 253.341 263.706 223.908L278.526 191.739C334.566 70.0827 502.953 58.462 575.162 171.294L594.251 201.127C611.725 228.423 636.646 250.14 666.08 263.693L698.248 278.513C819.897 334.545 831.51 502.925 718.685 575.126L688.852 594.215C661.556 611.689 639.84 636.61 626.286 666.043L611.466 698.212C555.427 819.868 387.039 831.489 314.831 718.657L314.838 718.68Z" stroke="#51B9FF" stroke-miterlimit="10"/>
<path d="M288.222 722.83L270.362 690.101C254.024 660.156 229.444 635.527 199.53 619.131L166.836 601.207C43.1985 533.427 43.3641 355.756 167.141 288.224L199.87 270.364C229.816 254.026 254.444 229.446 270.84 199.532L288.764 166.839C356.545 43.201 534.215 43.3667 601.747 167.144L619.607 199.873C635.945 229.818 660.525 254.447 690.439 270.843L723.133 288.767C846.778 356.54 846.605 534.203 722.835 601.742L690.106 619.602C660.161 635.94 635.532 660.52 619.136 690.434L601.212 723.128C533.432 846.765 355.761 846.6 288.23 722.822L288.222 722.83Z" stroke="#51B9FF" stroke-miterlimit="10"/>
</svg>
