<svg width="454" height="368" viewBox="0 0 454 368" fill="none" xmlns="http://www.w3.org/2000/svg">
<path d="M-90.8475 -113.364L-86.6452 -119.723C-82.8066 -125.542 -80.705 -132.341 -80.6136 -139.311L-80.5071 -146.935C-80.1094 -175.746 -48.0142 -192.73 -23.9656 -176.857L-17.6065 -172.655C-11.7877 -168.816 -4.98892 -166.715 1.98109 -166.623L9.60537 -166.517C38.4162 -166.119 55.4004 -134.024 39.5274 -109.975L35.3251 -103.616C31.4865 -97.7975 29.385 -90.9987 29.2935 -84.0287L29.1869 -76.4044C28.7893 -47.5935 -3.3059 -30.6094 -27.3544 -46.4824L-33.7136 -50.6847C-39.5324 -54.5232 -46.3312 -56.6248 -53.3012 -56.7163L-60.9255 -56.8228C-89.7364 -57.2205 -106.72 -89.3157 -90.8475 -113.364Z" stroke="#51B9FF" stroke-miterlimit="10"/>
<path d="M-93.986 -118.232L-89.1047 -124.605C-84.6407 -130.433 -81.9486 -137.417 -81.3326 -144.729L-80.6602 -152.721C-78.1249 -182.951 -43.1725 -198.42 -19.0914 -179.985L-12.7185 -175.104C-6.89001 -170.64 0.0939621 -167.948 7.40608 -167.332L15.3972 -166.66C45.6281 -164.124 61.0965 -129.172 42.6621 -105.091L37.7807 -98.7179C33.3168 -92.8894 30.6247 -85.9055 30.0086 -78.5933L29.3362 -70.6022C26.8009 -40.3714 -8.1514 -24.903 -32.2325 -43.3373L-38.6055 -48.2188C-44.4339 -52.6827 -51.4179 -55.3748 -58.73 -55.9908L-66.7212 -56.6632C-96.952 -59.1985 -112.42 -94.1509 -93.986 -118.232Z" stroke="#51B9FF" stroke-miterlimit="10"/>
<path d="M-96.9344 -123.578L-91.3431 -129.914C-86.229 -135.71 -82.8845 -142.847 -81.6985 -150.472L-80.4107 -158.817C-75.5253 -190.371 -37.6954 -204.055 -13.7552 -182.928L-7.42012 -177.336C-1.62325 -172.222 5.51279 -168.878 13.1381 -167.692L21.4836 -166.404C53.0373 -161.518 66.7216 -123.689 45.5939 -99.7484L40.0025 -93.4133C34.8885 -87.6164 31.544 -80.4803 30.358 -72.8551L29.0701 -64.5095C24.1847 -32.9558 -13.6451 -19.2715 -37.5853 -40.3993L-43.9204 -45.9906C-49.7173 -51.1047 -56.8534 -54.4491 -64.4787 -55.6352L-72.8242 -56.923C-104.378 -61.8084 -118.062 -99.6383 -96.9344 -123.578Z" stroke="#51B9FF" stroke-miterlimit="10"/>
<path d="M-99.6226 -129.403L-93.2842 -135.639C-87.4829 -141.342 -83.451 -148.595 -81.6559 -156.515L-79.6907 -165.182C-72.253 -197.955 -31.5171 -209.55 -7.93464 -185.599L-1.69933 -179.26C4.00399 -173.459 11.257 -169.427 19.1769 -167.632L27.8437 -165.667C60.6168 -158.229 72.2116 -117.493 48.2606 -93.9107L41.9222 -87.6754C36.1209 -81.9721 32.089 -74.7191 30.2938 -66.7992L28.3287 -58.1324C20.891 -25.3594 -19.845 -13.7645 -43.4274 -37.7155L-49.6627 -44.0539C-55.366 -49.8552 -62.6191 -53.8871 -70.5389 -55.6822L-79.2057 -57.6474C-111.979 -65.0851 -123.574 -105.821 -99.6226 -129.403Z" stroke="#51B9FF" stroke-miterlimit="10"/>
<path d="M-102.019 -135.726L-94.9127 -141.804C-88.4098 -147.366 -83.643 -154.68 -81.1727 -162.878L-78.4683 -171.833C-68.2535 -205.708 -24.6241 -214.883 -1.6183 -188.005L4.45937 -180.899C10.0217 -174.396 17.3359 -169.63 25.5337 -167.159L34.4888 -164.455C68.3634 -154.24 77.5384 -110.611 50.6613 -87.605L43.5552 -81.5273C37.0523 -75.9651 32.2856 -68.6508 29.8152 -60.453L27.1109 -51.4979C16.896 -17.6234 -26.7334 -8.44832 -49.7391 -35.3254L-55.8168 -42.4315C-61.3791 -48.9344 -68.6933 -53.7011 -76.8912 -56.1715L-85.8462 -58.8759C-119.721 -69.0907 -128.896 -112.72 -102.019 -135.726Z" stroke="#51B9FF" stroke-miterlimit="10"/>
<path d="M-104.074 -142.533L-96.1695 -148.401C-88.9341 -153.771 -83.3913 -161.101 -80.188 -169.527L-76.6929 -178.731C-63.4781 -213.546 -16.9907 -219.986 5.19265 -190.077L11.0611 -182.173C16.4307 -174.937 23.7607 -169.394 32.1869 -166.191L41.3909 -162.696C76.2058 -149.481 82.6454 -102.994 52.737 -80.8104L44.8324 -74.9419C37.5969 -69.5723 32.0541 -62.2423 28.8508 -53.8161L25.3557 -44.6121C12.141 -9.79722 -34.3464 -3.35766 -56.5298 -33.266L-62.3983 -41.1706C-67.7679 -48.4061 -75.0978 -53.9488 -83.524 -57.1522L-92.7281 -60.6473C-127.543 -73.862 -133.982 -120.349 -104.074 -142.533Z" stroke="#51B9FF" stroke-miterlimit="10"/>
<path d="M-105.734 -149.829L-96.9981 -155.409C-89.0034 -160.518 -82.6475 -167.802 -78.67 -176.411L-74.3161 -185.821C-57.8787 -221.415 -8.59758 -224.758 12.5012 -191.717L18.0819 -182.981C23.1907 -174.986 30.4745 -168.63 39.0837 -164.653L48.4933 -160.299C84.0873 -143.861 87.4301 -94.5804 54.3897 -73.4816L45.6536 -67.9009C37.6589 -62.7921 31.3029 -55.5083 27.3254 -46.8991L22.9715 -37.4895C6.53407 -1.89554 -42.747 1.44733 -63.8458 -31.5931L-69.4265 -40.3292C-74.5353 -48.324 -81.8191 -54.6799 -90.4283 -58.6574L-99.8379 -63.0113C-135.432 -79.4487 -138.775 -128.73 -105.734 -149.829Z" stroke="#51B9FF" stroke-miterlimit="10"/>
<path d="M-106.936 -157.624L-97.3523 -162.842C-88.5818 -167.616 -81.3714 -174.808 -76.562 -183.551L-71.308 -193.12C-51.4377 -229.283 0.560373 -229.188 20.2938 -192.946L25.5125 -183.362C30.2862 -174.592 37.4783 -167.381 46.2208 -162.572L55.7905 -157.318C91.9528 -137.447 91.8586 -85.4493 55.6162 -65.7159L46.0321 -60.4972C37.2616 -55.7236 30.0513 -48.5314 25.2418 -39.7889L19.9879 -30.2192C0.117498 5.9431 -51.8806 5.84884 -71.614 -30.3935L-76.8327 -39.9776C-81.6064 -48.7481 -88.7985 -55.9585 -97.541 -60.7679L-107.111 -66.0218C-143.273 -85.8922 -143.179 -137.89 -106.936 -157.624Z" stroke="#51B9FF" stroke-miterlimit="10"/>
<path d="M-107.634 -165.888L-97.1855 -170.671C-87.629 -175.045 -79.5251 -182.057 -73.8323 -190.894L-67.6081 -200.553C-44.0841 -237.079 10.5046 -233.15 28.565 -193.633L33.3474 -183.185C37.722 -173.628 44.7337 -165.525 53.5702 -159.832L63.2298 -153.608C99.7559 -130.084 95.8263 -75.4948 56.31 -57.4344L45.8615 -52.652C36.3051 -48.2774 28.2012 -41.2658 22.5083 -32.4292L16.2841 -22.7696C-7.23986 13.7565 -61.8286 9.82687 -79.889 -29.6894L-84.6714 -40.1379C-89.0459 -49.6943 -96.0576 -57.7982 -104.894 -63.4911L-114.554 -69.7153C-151.08 -93.2393 -147.15 -147.828 -107.634 -165.888Z" stroke="#51B9FF" stroke-miterlimit="10"/>
<path d="M-107.758 -174.624L-96.4429 -178.873C-86.0882 -182.757 -77.0599 -189.537 -70.4402 -198.395L-63.2027 -208.072C-35.821 -244.692 21.2136 -236.559 37.2729 -193.755L41.5219 -182.44C45.4065 -172.086 52.1861 -163.057 61.0445 -156.438L70.7216 -149.2C107.341 -121.818 99.2087 -64.7837 56.4044 -48.7244L45.0895 -44.4754C34.7348 -40.5908 25.7065 -33.8112 19.0868 -24.9528L11.8493 -15.2757C-15.5324 21.3437 -72.567 13.2114 -88.6263 -29.5929L-92.8753 -40.9077C-96.7599 -51.2625 -103.539 -60.2908 -112.398 -66.9105L-122.075 -74.148C-158.694 -101.53 -150.562 -158.564 -107.758 -174.624Z" stroke="#51B9FF" stroke-miterlimit="10"/>
<path d="M-107.251 -183.805L-95.0475 -187.436C-83.8884 -190.751 -73.9068 -197.203 -66.3068 -206.017L-57.9918 -215.652C-26.5484 -252.094 32.7459 -239.367 46.4717 -193.244L50.1027 -181.04C53.4168 -169.881 59.8694 -159.9 68.6834 -152.3L78.3183 -143.985C114.76 -112.541 102.033 -53.247 55.9104 -39.5213L43.7066 -35.8903C32.5475 -32.5761 22.5659 -26.1235 14.9659 -17.3095L6.65097 -7.67465C-24.7925 28.7674 -84.0868 16.0405 -97.8125 -30.0825L-101.444 -42.2863C-104.758 -53.4454 -111.21 -63.427 -120.024 -71.027L-129.659 -79.342C-166.101 -110.785 -153.374 -170.08 -107.251 -183.805Z" stroke="#51B9FF" stroke-miterlimit="10"/>
<path d="M-106.036 -193.398L-92.9581 -196.318C-80.9946 -198.992 -70.0475 -205.026 -61.4136 -213.73L-51.9718 -223.24C-16.2811 -259.195 45.0537 -241.49 56.0744 -192.036L58.9946 -178.958C61.6681 -166.994 67.7028 -156.047 76.4065 -147.413L85.9163 -137.971C121.871 -102.281 104.166 -40.9458 54.7124 -29.925L41.6341 -27.0049C29.6707 -24.3314 18.7235 -18.2966 10.0896 -9.59299L0.647853 -0.0831211C-35.0428 35.8717 -96.3776 18.1666 -107.398 -31.2871L-110.319 -44.3653C-112.992 -56.3288 -119.027 -67.2759 -127.73 -75.9099L-137.24 -85.3516C-173.195 -121.042 -155.49 -182.377 -106.036 -193.398Z" stroke="#51B9FF" stroke-miterlimit="10"/>
<path d="M-104.053 -203.394L-90.109 -205.5C-77.3434 -207.419 -65.4143 -212.962 -55.7073 -221.466L-45.0996 -230.762C-4.98039 -265.904 58.1138 -242.8 66.0643 -190.063L68.1704 -176.119C70.0898 -163.353 75.6323 -151.424 84.1367 -141.717L93.4329 -131.109C128.574 -90.99 105.47 -27.8957 52.7336 -19.9453L38.7892 -17.8392C26.0236 -15.9198 14.0945 -10.3773 4.38751 -1.87285L-6.22019 7.42331C-46.3394 42.5648 -109.434 19.4605 -117.384 -33.276L-119.49 -47.2204C-121.41 -59.986 -126.952 -71.9151 -135.457 -81.6221L-144.753 -92.2298C-179.894 -132.349 -156.79 -195.443 -104.053 -203.394Z" stroke="#51B9FF" stroke-miterlimit="10"/>
<path d="M-101.245 -213.744L-86.453 -214.927C-72.9163 -216.003 -59.9702 -220.948 -49.1509 -229.165L-37.332 -238.148C7.36814 -272.105 71.9386 -243.207 76.4143 -187.254L77.5969 -172.463C78.6735 -158.926 83.6185 -145.98 91.8349 -135.161L100.818 -123.342C134.775 -78.6416 105.877 -14.071 49.9244 -9.59538L35.1327 -8.41276C21.596 -7.33623 8.64988 -2.39118 -2.16935 5.8253L-13.9883 14.8086C-58.6884 48.7649 -123.259 19.8678 -127.735 -36.0852L-128.917 -50.877C-129.994 -64.4137 -134.939 -77.3598 -143.155 -88.179L-152.139 -99.998C-186.095 -144.698 -157.198 -209.269 -101.245 -213.744Z" stroke="#51B9FF" stroke-miterlimit="10"/>
<path d="M-97.5417 -224.405L-81.9109 -224.561C-67.6176 -224.702 -53.6629 -228.946 -41.6965 -236.769L-28.6251 -245.324C20.8103 -277.697 86.4872 -242.617 87.0775 -183.524L87.2335 -167.894C87.3743 -153.6 91.6186 -139.646 99.4418 -127.679L107.997 -114.608C140.369 -65.1724 105.289 0.504551 46.1968 1.09477L30.566 1.25077C16.2727 1.39157 2.31807 5.63593 -9.64836 13.4591L-22.7197 22.0139C-72.1552 54.3867 -137.832 19.3068 -138.422 -39.7859L-138.578 -55.4167C-138.719 -69.7099 -142.963 -83.6646 -150.787 -95.6311L-159.342 -108.702C-191.714 -158.138 -156.634 -223.815 -97.5417 -224.405Z" stroke="#51B9FF" stroke-miterlimit="10"/>
<path d="M-92.8603 -235.329L-76.436 -234.347C-61.4213 -233.447 -46.4437 -236.873 -33.3178 -244.212L-18.9652 -252.244C35.3187 -282.61 101.712 -240.945 97.9892 -178.864L97.0072 -162.439C96.107 -147.425 99.533 -132.447 106.872 -119.321L114.903 -104.968C145.269 -50.6847 103.605 15.7083 41.5235 11.9859L25.0992 11.0039C10.0845 10.1037 -4.89311 13.5297 -18.019 20.8688L-32.3716 28.9002C-86.6555 59.2662 -153.048 17.6014 -149.326 -44.4799L-148.344 -60.9042C-147.444 -75.9188 -150.87 -90.8964 -158.209 -104.022L-166.24 -118.375C-196.606 -172.659 -154.941 -239.052 -92.8603 -235.329Z" stroke="#51B9FF" stroke-miterlimit="10"/>
<path d="M-87.1465 -246.451L-69.9845 -244.213C-54.2837 -242.167 -38.3121 -244.659 -23.9814 -251.415L-8.31057 -258.791C50.9265 -286.693 117.583 -238.075 109.111 -173.15L106.873 -155.988C104.827 -140.287 107.319 -124.316 114.075 -109.985L121.45 -94.314C149.353 -35.0769 100.735 31.5796 35.8098 23.1073L18.6479 20.8696C2.94701 18.8233 -13.0245 21.3154 -27.3553 28.0712L-43.0261 35.4471C-102.263 63.3499 -168.92 14.7313 -160.447 -50.1936L-158.21 -67.3556C-156.163 -83.0564 -158.655 -99.028 -165.411 -113.359L-172.787 -129.03C-200.69 -188.267 -152.071 -254.923 -87.1465 -246.451Z" stroke="#51B9FF" stroke-miterlimit="10"/>
<path d="M-80.337 -257.71L-62.4766 -254.094C-46.1351 -250.791 -29.1883 -252.239 -13.6426 -258.278L3.35049 -264.874C67.6001 -289.817 134.024 -233.877 120.365 -166.324L116.75 -148.463C113.446 -132.122 114.895 -115.175 120.933 -99.6294L127.53 -82.6363C152.472 -18.3867 96.5325 48.0377 28.9791 34.3781L11.1188 30.763C-5.22274 27.4591 -22.1695 28.9079 -37.7152 34.9464L-54.7084 41.5428C-118.958 66.4851 -185.382 10.5458 -171.723 -57.0077L-168.108 -74.868C-164.804 -91.2095 -166.253 -108.156 -172.291 -123.702L-178.887 -140.695C-203.83 -204.945 -147.89 -271.369 -80.337 -257.71Z" stroke="#51B9FF" stroke-miterlimit="10"/>
<path d="M-72.3441 -269.031L-53.8475 -263.931C-36.9273 -259.262 -19.0281 -259.542 -2.26344 -264.739L16.0622 -270.422C85.357 -291.904 151.01 -228.28 131.707 -158.344L126.608 -139.847C121.939 -122.927 122.218 -105.028 127.416 -88.2629L133.098 -69.9373C154.581 -0.642487 90.9558 65.0106 21.0198 45.7078L2.52322 40.6082C-14.3969 35.9394 -32.2962 36.219 -49.0609 41.4162L-67.3864 47.099C-136.681 68.5813 -202.334 4.95638 -183.032 -64.9796L-177.932 -83.4762C-173.263 -100.396 -173.543 -118.296 -178.74 -135.06L-184.423 -153.386C-205.905 -222.681 -142.28 -288.334 -72.3441 -269.031Z" stroke="#51B9FF" stroke-miterlimit="10"/>
<path d="M-63.1253 -280.343L-44.0792 -273.622C-26.6527 -267.475 -7.83426 -266.454 10.1534 -270.686L29.8175 -275.304C104.167 -292.771 168.425 -221.144 143.019 -149.125L136.299 -130.079C130.152 -112.652 129.13 -93.8338 133.362 -75.8461L137.981 -56.1821C155.448 18.1676 83.8203 82.4259 11.8015 57.0199L-7.24457 50.2994C-24.671 44.1523 -43.4895 43.1308 -61.4772 47.3629L-81.1413 51.9814C-155.491 69.4484 -219.749 -2.17927 -194.343 -74.198L-187.623 -93.2441C-181.476 -110.671 -180.454 -129.489 -184.686 -147.477L-189.305 -167.141C-206.772 -241.491 -135.144 -305.749 -63.1253 -280.343Z" stroke="#51B9FF" stroke-miterlimit="10"/>
<path d="M-52.6194 -291.542L-33.1127 -283.092C-15.2688 -275.357 4.41931 -272.906 23.6195 -276.027L44.6013 -279.428C123.952 -292.314 186.169 -212.381 154.208 -138.612L145.757 -119.106C138.023 -101.262 135.572 -81.5736 138.693 -62.3734L142.094 -41.3916C154.98 37.9588 75.047 100.176 1.27817 68.215L-18.2286 59.7645C-36.0725 52.0297 -55.7605 49.5791 -74.9608 52.6996L-95.9426 56.1011C-175.293 68.9873 -237.51 -10.9459 -205.549 -84.7147L-197.099 -104.221C-189.364 -122.065 -186.913 -141.753 -190.034 -160.954L-193.435 -181.935C-206.322 -261.286 -126.388 -323.503 -52.6194 -291.542Z" stroke="#51B9FF" stroke-miterlimit="10"/>
<path d="M-40.7632 -302.526L-20.9054 -292.223C-2.73291 -282.792 17.7545 -278.772 38.1403 -280.638L60.4292 -282.676C144.691 -290.381 204.169 -201.879 165.185 -126.767L154.883 -106.909C145.451 -88.7365 141.431 -68.2492 143.298 -47.8634L145.336 -25.5744C153.041 58.6873 64.5383 118.165 -10.5735 79.1815L-30.4314 68.8792C-48.6038 59.4476 -69.0912 55.4275 -89.477 57.294L-111.766 59.3321C-196.028 67.037 -255.506 -21.4654 -216.522 -96.5772L-206.22 -116.435C-196.788 -134.608 -192.768 -155.095 -194.634 -175.481L-196.672 -197.77C-204.377 -282.031 -115.875 -341.509 -40.7632 -302.526Z" stroke="#51B9FF" stroke-miterlimit="10"/>
<path d="M-27.506 -313.183L-7.40644 -300.907C10.9789 -289.667 32.2056 -283.944 53.7562 -284.404L77.3006 -284.907C166.353 -286.811 222.3 -189.518 175.86 -113.505L163.584 -93.4057C152.344 -75.0204 146.62 -53.7938 147.08 -32.2432L147.584 -8.69872C149.488 80.3541 52.1945 136.3 -23.8181 89.8604L-43.9176 77.5847C-62.303 66.3448 -83.5297 60.6212 -105.08 61.081L-128.625 61.5842C-217.677 63.4888 -273.624 -33.8048 -227.184 -109.817L-214.908 -129.917C-203.668 -148.302 -197.945 -169.529 -198.404 -191.08L-198.908 -214.624C-200.812 -303.677 -103.519 -359.623 -27.506 -313.183Z" stroke="#51B9FF" stroke-miterlimit="10"/>
<path d="M-12.8129 -323.41L7.39191 -309.037C25.8786 -295.894 47.7371 -288.319 70.4049 -287.217L95.1695 -286.01C188.825 -281.468 240.428 -175.192 186.083 -98.7954L171.71 -78.5906C158.567 -60.1039 150.991 -38.2454 149.889 -15.5777L148.682 9.18697C144.141 102.842 37.8648 154.445 -38.5322 100.1L-58.737 85.7272C-77.2237 72.5841 -99.0822 65.0085 -121.75 63.9069L-146.515 62.7C-240.17 58.1583 -291.773 -48.1177 -237.428 -124.515L-223.055 -144.72C-209.912 -163.206 -202.336 -185.065 -201.234 -207.732L-200.028 -232.497C-195.486 -326.152 -89.2099 -377.756 -12.8129 -323.41Z" stroke="#51B9FF" stroke-miterlimit="10"/>
<path d="M3.38675 -333.066L23.5481 -316.493C41.9936 -301.334 64.3971 -291.77 88.1076 -288.95L114.024 -285.866C212.03 -274.222 258.414 -158.832 195.739 -82.596L179.166 -62.4347C164.006 -43.9892 154.442 -21.5857 151.623 2.12475L148.538 28.0414C136.894 126.047 21.5048 172.431 -54.7314 109.756L-74.8927 93.183C-93.3382 78.0235 -115.742 68.4597 -139.452 65.6398L-165.369 62.5555C-263.374 50.9115 -309.759 -64.478 -247.083 -140.714L-230.51 -160.876C-215.351 -179.321 -205.787 -201.725 -202.967 -225.435L-199.883 -251.352C-188.239 -349.357 -72.8494 -395.742 3.38675 -333.066Z" stroke="#51B9FF" stroke-miterlimit="10"/>
<path d="M21.0855 -342.021L41.0444 -323.139C59.3 -305.86 82.1287 -294.18 106.818 -289.491L133.808 -284.356C235.863 -264.939 276.101 -140.371 204.697 -64.9133L185.815 -44.9544C168.536 -26.6988 156.856 -3.87013 152.167 20.8189L147.032 47.8088C127.616 149.865 3.04731 190.102 -72.4104 118.698L-92.3693 99.816C-110.625 82.537 -133.454 70.8572 -158.143 66.1684L-185.133 61.0336C-287.188 41.6167 -327.426 -82.9516 -256.022 -158.409L-237.14 -178.368C-219.861 -196.624 -208.181 -219.452 -203.492 -244.141L-198.357 -271.131C-178.941 -373.187 -54.3722 -413.424 21.0855 -342.021Z" stroke="#51B9FF" stroke-miterlimit="10"/>
<path d="M40.3447 -350.128L59.9091 -328.835C77.8137 -309.354 100.917 -295.412 126.502 -288.665L154.466 -281.294C260.203 -253.407 293.317 -119.65 212.788 -45.6587L191.495 -26.0943C172.014 -8.1897 158.072 14.9134 151.325 40.4982L143.954 68.4622C116.067 174.2 -17.6895 207.314 -91.6811 126.785L-111.246 105.492C-129.15 86.011 -152.253 72.0689 -177.838 65.3214L-205.802 57.9503C-311.54 30.0634 -344.654 -103.693 -264.125 -177.685L-242.832 -197.249C-223.351 -215.154 -209.409 -238.257 -202.661 -263.841L-195.29 -291.805C-167.403 -397.543 -33.6469 -430.657 40.3447 -350.128Z" stroke="#51B9FF" stroke-miterlimit="10"/>
<path d="M61.1546 -357.214L80.1427 -333.416C97.5085 -311.649 120.756 -295.31 147.119 -286.349L175.941 -276.561C284.933 -239.512 309.877 -96.6288 219.891 -24.8447L196.093 -5.85653C174.325 11.5092 157.987 34.7565 149.026 61.1193L139.237 89.9416C102.189 198.934 -40.6945 223.877 -112.479 133.891L-131.467 110.094C-148.833 88.3262 -172.08 71.9875 -198.443 63.0267L-227.265 53.2378C-336.257 16.1898 -361.201 -126.694 -271.215 -198.478L-247.417 -217.466C-225.65 -234.832 -209.311 -258.079 -200.35 -284.442L-190.561 -313.264C-153.513 -422.256 -10.6295 -447.2 61.1546 -357.214Z" stroke="#51B9FF" stroke-miterlimit="10"/>
<path d="M83.532 -363.135L101.713 -336.749C118.352 -312.611 141.563 -293.754 168.582 -282.409L198.126 -270.008C309.848 -223.106 325.559 -71.2307 225.794 -2.47158L199.409 15.7091C175.271 32.348 156.414 55.5598 145.069 82.5787L132.668 112.123C85.7662 223.844 -66.1094 239.555 -134.869 139.791L-153.049 113.406C-169.688 89.2674 -192.9 70.4107 -219.919 59.0653L-249.463 46.6648C-361.184 -0.237363 -376.895 -152.113 -277.131 -220.872L-250.746 -239.053C-226.608 -255.692 -207.751 -278.903 -196.405 -305.922L-184.005 -335.467C-137.103 -447.188 14.7728 -462.899 83.532 -363.135Z" stroke="#51B9FF" stroke-miterlimit="10"/>
<path d="M107.458 -367.709L124.62 -338.667C140.316 -312.098 163.302 -290.596 190.855 -276.694L220.962 -261.503C334.844 -204.056 340.188 -43.4203 230.375 21.4652L201.333 38.6277C174.764 54.3231 153.262 77.3094 139.36 104.862L124.169 134.969C66.7218 248.852 -93.9136 254.195 -158.799 144.383L-175.962 115.34C-191.657 88.7714 -214.643 67.2689 -242.196 53.3678L-272.303 38.1762C-386.186 -19.2709 -391.529 -179.906 -281.717 -244.792L-252.674 -261.954C-226.105 -277.65 -204.603 -300.636 -190.702 -328.189L-175.51 -358.296C-118.063 -472.178 42.5724 -477.522 107.458 -367.709Z" stroke="#51B9FF" stroke-miterlimit="10"/>
<path d="M132.92 -370.75L148.804 -338.992C163.333 -309.944 185.898 -285.678 213.803 -269.056L244.314 -250.894C359.676 -182.213 353.487 -13.1452 233.422 46.9377L201.664 62.8219C172.616 77.3508 148.35 99.9154 131.728 127.821L113.566 158.332C44.8852 273.693 -124.183 267.505 -184.266 147.439L-200.15 115.681C-214.679 86.6331 -237.243 62.3673 -265.149 45.7455L-295.659 27.5835C-411.017 -41.1139 -404.839 -210.176 -284.757 -270.254L-252.999 -286.139C-223.951 -300.668 -199.685 -323.232 -183.063 -351.137L-164.901 -381.648C-96.2203 -497.01 72.8477 -490.821 132.931 -370.756L132.92 -370.75Z" stroke="#51B9FF" stroke-miterlimit="10"/>
<path d="M159.877 -372.09L174.227 -337.576C187.361 -306.009 209.264 -278.864 237.35 -259.363L268.052 -238.047C384.151 -157.45 365.239 19.6281 234.745 73.8906L200.232 88.2407C168.664 101.374 141.52 123.277 122.019 151.364L100.703 182.065C20.1058 298.164 -156.972 279.252 -211.235 148.759L-225.585 114.245C-238.718 82.6777 -260.622 55.5333 -288.708 36.032L-319.41 14.716C-435.486 -65.8665 -416.59 -242.949 -286.097 -297.211L-251.583 -311.561C-220.016 -324.695 -192.871 -346.598 -173.37 -374.684L-152.054 -405.386C-71.4572 -521.485 105.621 -502.573 159.883 -372.079L159.877 -372.09Z" stroke="#51B9FF" stroke-miterlimit="10"/>
<path d="M188.281 -371.505L200.813 -334.219C212.288 -300.102 233.289 -269.991 261.351 -247.459L292.019 -222.827C408.002 -129.676 375.165 54.8823 234.144 102.29L196.858 114.821C162.741 126.297 132.63 147.297 110.099 175.36L85.4657 206.028C-7.6844 322.011 -192.243 289.174 -239.651 148.153L-252.182 110.867C-263.658 76.7502 -284.658 46.6386 -312.721 24.1075L-343.388 -0.525369C-459.366 -93.6651 -426.522 -278.214 -285.512 -325.616L-248.226 -338.147C-214.109 -349.622 -183.997 -370.623 -161.466 -398.685L-136.833 -429.353C-43.6834 -545.336 140.876 -512.499 188.284 -371.478L188.281 -371.505Z" stroke="#51B9FF" stroke-miterlimit="10"/>
<path d="M218.077 -368.807L228.504 -328.732C238.041 -292.067 257.891 -258.91 285.705 -233.186L316.103 -205.067C431.058 -98.7333 383.021 92.6528 231.467 132.073L191.392 142.5C154.726 152.037 121.57 171.887 95.8456 199.701L67.7269 230.099C-38.6069 345.054 -229.993 297.017 -269.413 145.463L-279.841 105.389C-289.378 68.7228 -309.227 35.566 -337.041 9.84205L-367.439 -18.2766C-482.405 -124.604 -434.362 -315.98 -282.814 -355.411L-242.739 -365.838C-206.073 -375.375 -172.916 -395.225 -147.193 -423.039L-119.074 -453.437C-12.7401 -568.392 178.646 -520.355 218.066 -368.801L218.077 -368.807Z" stroke="#51B9FF" stroke-miterlimit="10"/>
</svg>
